<?xml version="1.0" encoding="UTF-8" standalone="no"?>
<!-- Created with Inkscape (http://www.inkscape.org/) -->

<svg
   xmlns:dc="http://purl.org/dc/elements/1.1/"
   xmlns:cc="http://creativecommons.org/ns#"
   xmlns:rdf="http://www.w3.org/1999/02/22-rdf-syntax-ns#"
   xmlns:svg="http://www.w3.org/2000/svg"
   xmlns="http://www.w3.org/2000/svg"
   xmlns:sodipodi="http://sodipodi.sourceforge.net/DTD/sodipodi-0.dtd"
   xmlns:inkscape="http://www.inkscape.org/namespaces/inkscape"
   width="210mm"
   height="149mm"
   viewBox="0 0 210 149"
   version="1.1"
   id="svg3719"
   inkscape:version="0.92.3 (2405546, 2018-03-11)"
   sodipodi:docname="Titulo.svg">
  <title
     id="title18240">Titulo-de-curriculum</title>
  <defs
     id="defs3713">
    <inkscape:perspective
       sodipodi:type="inkscape:persp3d"
       inkscape:vp_x="-32.606882 : 171.48533 : 1"
       inkscape:vp_y="0 : 999.99992 : 0"
       inkscape:vp_z="232.98518 : 157.05274 : 1"
       inkscape:persp3d-origin="105.53454 : 86.705594 : 1"
       id="perspective13502" />
  </defs>
  <sodipodi:namedview
     id="base"
     pagecolor="#ffffff"
     bordercolor="#666666"
     borderopacity="1.0"
     inkscape:pageopacity="0.0"
     inkscape:pageshadow="2"
     inkscape:zoom="0.49497475"
     inkscape:cx="496.62261"
     inkscape:cy="155.69991"
     inkscape:document-units="mm"
     inkscape:current-layer="layer1"
     showgrid="false"
     inkscape:window-width="1920"
     inkscape:window-height="1001"
     inkscape:window-x="-9"
     inkscape:window-y="-9"
     inkscape:window-maximized="1" />
  <metadata
     id="metadata3716">
    <rdf:RDF>
      <cc:Work
         rdf:about="">
        <dc:format>image/svg+xml</dc:format>
        <dc:type
           rdf:resource="http://purl.org/dc/dcmitype/StillImage" />
        <dc:title>Titulo-de-curriculum</dc:title>
      </cc:Work>
    </rdf:RDF>
  </metadata>
  <g
     inkscape:label="Layer 1"
     inkscape:groupmode="layer"
     id="layer1"
     transform="translate(0,-148)">
    <flowRoot
       xml:space="preserve"
       id="flowRoot3731"
       style="font-style:normal;font-weight:normal;font-size:40px;line-height:1.25;font-family:sans-serif;letter-spacing:0px;word-spacing:0px;fill:#000000;fill-opacity:1;stroke:none"
       transform="scale(0.26458333)"><flowRegion
         id="flowRegion3733"><rect
           id="rect3735"
           width="217.14285"
           height="117.14286"
           x="208.57143"
           y="191.09111" /></flowRegion><flowPara
         id="flowPara3737"></flowPara></flowRoot>    <path
       style="fill:#112b00;stroke-width:0.75595242"
       d="m 67.814739,225.89656 v -38.17559 h 27.214274 27.214277 v 4.91369 4.91369 H 100.69865 79.154019 v 27.59226 27.59225 h 21.166661 21.16666 v 5.66964 5.66965 H 94.651033 67.814739 Z"
       id="path3792"
       inkscape:connector-curvature="0" />
    <path
       style="fill:#000080;stroke-width:0.75595242"
       d="m 122.24329,236.85787 v -39.30952 h 29.10417 29.10416 v 4.91369 4.91369 h -23.05655 -23.05654 v 29.48214 29.48214 h 21.54464 21.54464 v 4.9137 4.91368 h -27.59226 -27.59226 z"
       id="path3794"
       inkscape:connector-curvature="0" />
    <path
       style="fill:#ff0000;stroke-width:2.02030516"
       d=""
       id="path4486"
       inkscape:connector-curvature="0"
       transform="scale(0.26458333)" />
    <path
       style="fill:#ff0000;stroke-width:2.02030516"
       d=""
       id="path4488"
       inkscape:connector-curvature="0"
       transform="scale(0.26458333)" />
    <path
       style="fill:#ff0000;stroke-width:0.26726952"
       d="m 38.198474,247.62332 c -0.992238,-0.14555 -1.804069,-0.35417 -1.804069,-0.46359 0,-0.10942 -0.300678,-0.14148 -0.668174,-0.0712 -0.406238,0.0777 -0.668173,0.005 -0.668173,-0.18648 0,-0.17281 -0.120494,-0.23973 -0.267761,-0.14871 -0.714767,0.44175 -10.229956,-2.94041 -9.568402,-3.40107 0.236384,-0.1646 0.167216,-0.19195 -0.21553,-0.0852 -1.046877,0.29194 -1.192765,-0.32383 -1.113938,-4.70172 l 0.07395,-4.1067 1.069078,-0.16253 1.069078,-0.16252 -1.135896,-0.0379 -1.135896,-0.0379 v -12.82893 -12.82894 h 5.078121 5.078122 v 12.67403 12.67403 l 1.670433,0.14466 c 0.91874,0.0796 5.970133,0.21271 11.225321,0.29589 l 9.554885,0.15122 V 202.66089 170.98211 H 45.080665 33.721708 v -4.14268 -4.14268 h 26.466646 26.466644 l -0.07378,4.07586 -0.07378,4.07586 -9.457055,0.0703 -9.457055,0.0703 0.182449,35.74384 c 0.110204,21.59019 0.08529,35.88647 -0.06291,36.10403 -0.134954,0.1981 -0.531689,0.36409 -0.881637,0.36887 -0.349951,0.005 -8.153225,-0.047 -17.340617,-0.11513 -9.187389,-0.0681 -18.328007,-0.0442 -20.312483,0.053 -1.984475,0.0973 5.53248,0.20112 16.704347,0.23079 13.705702,0.0364 20.163216,0.14096 19.853563,0.32145 -2.080008,1.2124 -10.155116,3.43699 -14.37454,3.96 -2.792793,0.34617 -10.714688,0.32656 -13.163023,-0.0326 z"
       id="path4548"
       inkscape:connector-curvature="0" />
    <path
       style="fill:#000080;stroke-width:2.02030516"
       d="M 258.22661,293.50449 V 150.06282 h 101.01526 101.01525 v 18.18275 18.18275 h -80.8122 -80.81221 v 105.05586 105.05586 h 79.80205 79.80206 v 20.20306 20.20305 H 358.23171 258.22661 Z"
       id="path18236"
       inkscape:connector-curvature="0"
       transform="matrix(0.26458333,0,0,0.26458333,0,148)" />
    <path
       style="fill:#112b00;stroke-width:2.02030516"
       d="M 462.27743,335.93089 V 188.44862 H 571.3739 680.47038 v 17.17259 17.1726 h -86.87312 -86.87312 v 113.13708 113.13709 h 81.82235 81.82236 v 17.17259 17.17259 H 566.32314 462.27743 Z"
       id="path18238"
       inkscape:connector-curvature="0"
       transform="matrix(0.26458333,0,0,0.26458333,0,148)" />
  </g>
</svg>
